<svg xmlns="http://www.w3.org/2000/svg" xmlns:xlink="http://www.w3.org/1999/xlink" xml:space="preserve" version="1.1" style="shape-rendering:geometricPrecision;text-rendering:geometricPrecision;image-rendering:optimizeQuality;" viewBox="0 0 280 350" x="0px" y="0px" fill-rule="evenodd" clip-rule="evenodd"><defs><style type="text/css">
   
    .fil0 {fill:black;fill-rule:nonzero}
   
  </style></defs><g><path class="fil0" d="M23.222 41.059l235.556 0 0 140.673 -237.556 0 0 -140.673 2 0zm46.637 47.971c-0.764,-0.794 -0.739,-2.057 0.054,-2.82 0.794,-0.764 2.057,-0.739 2.821,0.054 4.198,4.363 7.064,10.504 8.44,16.952 1.419,6.649 1.266,13.679 -0.634,19.46 -0.341,1.048 -1.468,1.622 -2.516,1.281 -1.048,-0.34 -1.622,-1.467 -1.281,-2.515 1.682,-5.117 1.804,-11.405 0.525,-17.398 -1.23,-5.765 -3.749,-11.211 -7.409,-15.014zm0.57 42.738c0.768,-0.789 2.031,-0.807 2.821,-0.039 0.789,0.768 0.807,2.031 0.039,2.821 -0.594,0.608 -1.228,1.209 -1.903,1.801 -0.647,0.567 -1.334,1.124 -2.061,1.67 -0.879,0.659 -2.129,0.481 -2.789,-0.399 -0.659,-0.88 -0.481,-2.129 0.399,-2.789 0.63,-0.473 1.239,-0.968 1.826,-1.483 0.577,-0.505 1.134,-1.033 1.668,-1.582zm112.803 45.964l0 -115.518c0,-1.104 0.896,-2 2,-2l52.202 0c1.104,0 2,0.896 2,2l0 115.518 15.344 0 0 -132.672 -229.556 0 0 132.672 21.551 0 5.043 -31.261c-0.737,-0.365 -1.453,-0.76 -2.15,-1.183 -6.74,-4.09 -11.046,-10.59 -13.019,-17.729 -1.961,-7.088 -1.622,-14.825 0.918,-21.445 0.623,-1.625 1.394,-3.205 2.309,-4.713 1.532,-2.524 3.155,-5.017 4.804,-7.551 7.092,-10.895 14.7,-22.582 11.528,-30.386 -0.414,-1.023 0.079,-2.188 1.101,-2.602 0.606,-0.245 1.261,-0.172 1.781,0.14 12.674,6.273 22.485,17.341 28.059,29.64 3.048,6.725 4.837,13.839 5.143,20.758 0.308,6.976 -0.897,13.759 -3.841,19.758 -3.136,6.386 -8.217,11.855 -15.512,15.697l3.274 30.877 35 0 0 -7.721c0,-1.202 0.49,-2.293 1.278,-3.082 0.789,-0.788 1.88,-1.278 3.082,-1.278l5.565 0 0 -15.968c0,-1.504 0.614,-2.87 1.603,-3.859 0.739,-0.739 1.689,-1.268 2.75,-1.489 0.383,-4.28 0.245,-16.107 -11.566,-23.364l0.003 -0.003c-0.604,-0.37 -0.876,-1.129 -0.612,-1.813l22.36 -57.366c0.183,-0.621 0.758,-1.075 1.439,-1.075 0.681,0 1.255,0.454 1.439,1.075l22.317 57.254c0.33,0.684 0.095,1.522 -0.566,1.928 -11.813,7.258 -11.949,19.086 -11.566,23.365 1.056,0.221 2.005,0.752 2.746,1.492l0.004 -0.004c0.989,0.989 1.604,2.355 1.604,3.859l0 15.968 5.565 0c1.192,0 2.281,0.492 3.076,1.284l0.005 -0.006c0.789,0.789 1.279,1.88 1.279,3.082l0 7.721 20.216 0zm52.201 0l0 -113.518 -48.201 0 0 113.518 48.201 0zm-182.602 0l17.362 0 -3.039 -28.684 -9.647 -0.301 -4.676 28.985zm64.38 0l39.805 0 0 -6.081 -39.805 0 0 6.081zm7.925 -12.081l23.954 0 0 -15.968c0,-0.4 -0.165,-0.765 -0.43,-1.031l0.004 -0.004 -0.004 -0.004c-0.261,-0.261 -0.627,-0.423 -1.032,-0.423l-21.03 0c-0.4,0 -0.766,0.165 -1.031,0.431 -0.266,0.266 -0.431,0.631 -0.431,1.031l0 15.968zm20.596 -21.43c-0.363,-5.014 0.128,-17.198 11.948,-25.125l-19.067 -48.917 0 33.068c1.253,0.287 2.375,0.926 3.257,1.809 1.217,1.217 1.97,2.897 1.97,4.749 0,1.858 -0.753,3.54 -1.971,4.757 -1.217,1.217 -2.899,1.971 -4.756,1.971 -1.857,0 -3.539,-0.754 -4.757,-1.971 -1.217,-1.218 -1.971,-2.9 -1.971,-4.757 0,-1.857 0.754,-3.54 1.971,-4.757 0.88,-0.88 2.002,-1.517 3.257,-1.803l0 -33.066 -19.067 48.917c11.82,7.927 12.311,20.111 11.948,25.125l17.238 0zm-6.69 -36.353c-0.489,-0.488 -1.171,-0.79 -1.929,-0.79 -0.754,0 -1.436,0.305 -1.929,0.798 -0.493,0.493 -0.798,1.175 -0.798,1.929 0,0.754 0.305,1.436 0.798,1.929 0.493,0.493 1.175,0.798 1.929,0.798 0.754,0 1.436,-0.305 1.929,-0.798 0.493,-0.493 0.798,-1.175 0.798,-1.928 0,-0.76 -0.305,-1.445 -0.798,-1.938zm-46.01 126.713l10.581 0c2.508,-2.681 4.428,-5.759 5.833,-8.99 1.496,-3.443 2.411,-7.057 2.835,-10.552l-88.563 0c-4.051,0 -7.731,-1.655 -10.397,-4.321 -2.666,-2.665 -4.321,-6.346 -4.321,-10.397l0 -157.493c0,-4.05 1.655,-7.731 4.321,-10.397 2.666,-2.666 6.346,-4.32 10.397,-4.32l232.564 0c4.051,0 7.732,1.654 10.397,4.32 2.666,2.666 4.321,6.347 4.321,10.397l0 157.493c0,4.051 -1.655,7.731 -4.321,10.397 -2.666,2.666 -6.346,4.321 -10.397,4.321l-88.563 0c0.423,3.495 1.338,7.109 2.835,10.552 1.405,3.231 3.324,6.309 5.833,8.99l10.581 0c2.383,0 4.548,0.973 6.114,2.539 1.567,1.567 2.54,3.732 2.54,6.115l0 5.654c0,1.657 -1.343,3 -3,3l-105.244 0c-1.657,0 -3,-1.343 -3,-3l0 -5.654c0,-2.383 0.973,-4.548 2.54,-6.115 1.566,-1.566 3.731,-2.539 6.114,-2.539zm15.786 0l62.364 0c-1.744,-2.316 -3.162,-4.815 -4.284,-7.396 -1.725,-3.968 -2.751,-8.137 -3.193,-12.146l-47.411 0c-0.441,4.009 -1.467,8.178 -3.192,12.146 -1.122,2.581 -2.54,5.08 -4.284,7.396zm78.15 6l-93.936 0c-0.727,0 -1.39,0.299 -1.872,0.782 -0.483,0.482 -0.782,1.145 -0.782,1.872l0 2.654 99.244 0 0 -2.654c0,-0.727 -0.299,-1.39 -0.782,-1.872 -0.482,-0.483 -1.145,-0.782 -1.872,-0.782zm-46.968 -51.002c2.161,0 4.118,0.877 5.535,2.293 1.416,1.417 2.293,3.374 2.293,5.535 0,2.161 -0.877,4.119 -2.293,5.535l-0.09 0.084c-1.41,1.367 -3.33,2.209 -5.445,2.209 -2.157,0 -4.113,-0.876 -5.53,-2.293l-0.005 -0.005c-1.417,-1.417 -2.293,-3.373 -2.293,-5.53 0,-2.157 0.876,-4.112 2.293,-5.529l0 -0.006c1.416,-1.416 3.374,-2.293 5.535,-2.293zm3.414 4.414c-0.873,-0.873 -2.081,-1.413 -3.414,-1.413 -1.334,0 -2.541,0.54 -3.414,1.413l-0.003 -0.003c-0.872,0.873 -1.411,2.082 -1.411,3.417 0,1.336 0.539,2.544 1.411,3.417 0.873,0.872 2.081,1.411 3.417,1.411 1.302,0 2.483,-0.513 3.351,-1.346l0.063 -0.067c0.873,-0.874 1.414,-2.081 1.414,-3.415 0,-1.333 -0.541,-2.54 -1.414,-3.414zm112.868 -159.883l-232.564 0c-2.394,0 -4.573,0.982 -6.155,2.564 -1.581,1.581 -2.563,3.76 -2.563,6.154l0 157.493c0,2.394 0.982,4.574 2.563,6.155 1.582,1.581 3.761,2.563 6.155,2.563l232.564 0c2.394,0 4.573,-0.982 6.155,-2.563 1.581,-1.582 2.563,-3.761 2.563,-6.155l0 -157.493c0,-2.394 -0.982,-4.573 -2.563,-6.154 -1.581,-1.582 -3.761,-2.564 -6.155,-2.564zm-202.562 108.852c0.433,-0.2 0.918,-0.299 1.42,-0.271l14.797 0.462c0.37,0.01 0.722,0.087 1.045,0.218 6.558,-3.43 11.106,-8.295 13.889,-13.963 2.638,-5.374 3.714,-11.499 3.434,-17.837 -0.282,-6.395 -1.952,-13.006 -4.799,-19.288 -4.678,-10.324 -12.52,-19.709 -22.596,-25.751 0.498,8.924 -6.395,19.515 -12.888,29.49 -1.68,2.58 -3.332,5.118 -4.742,7.442 -0.765,1.259 -1.426,2.625 -1.981,4.071 -2.244,5.851 -2.543,12.692 -0.809,18.962 1.72,6.221 5.44,11.866 11.239,15.385 0.632,0.383 1.295,0.744 1.991,1.08zm156.589 -66.708c-0.828,0 -1.5,-0.672 -1.5,-1.5 0,-0.828 0.672,-1.5 1.5,-1.5l16.49 0c0.828,0 1.5,0.672 1.5,1.5 0,0.828 -0.672,1.5 -1.5,1.5l-16.49 0zm0 37.295c-0.828,0 -1.5,-0.672 -1.5,-1.5 0,-0.828 0.672,-1.5 1.5,-1.5l16.49 0c0.828,0 1.5,0.672 1.5,1.5 0,0.828 -0.672,1.5 -1.5,1.5l-16.49 0zm0 37.295c-0.828,0 -1.5,-0.672 -1.5,-1.5 0,-0.829 0.672,-1.501 1.5,-1.501l16.49 0c0.828,0 1.5,0.672 1.5,1.501 0,0.828 -0.672,1.5 -1.5,1.5l-16.49 0zm7.387 -55.943c-0.828,0 -1.5,-0.672 -1.5,-1.5 0,-0.829 0.672,-1.5 1.5,-1.5l9.103 0c0.828,0 1.5,0.671 1.5,1.5 0,0.828 -0.672,1.5 -1.5,1.5l-9.103 0zm0 37.296c-0.828,0 -1.5,-0.672 -1.5,-1.5 0,-0.828 0.672,-1.5 1.5,-1.5l9.103 0c0.828,0 1.5,0.672 1.5,1.5 0,0.828 -0.672,1.5 -1.5,1.5l-9.103 0zm0 37.295c-0.828,0 -1.5,-0.672 -1.5,-1.5 0,-0.829 0.672,-1.501 1.5,-1.501l9.103 0c0.828,0 1.5,0.672 1.5,1.501 0,0.828 -0.672,1.5 -1.5,1.5l-9.103 0z"/></g><text x="0" y="295" fill="#000000" font-size="5px" font-weight="bold" font-family="'Helvetica Neue', Helvetica, Arial-Unicode, Arial, Sans-serif">Created by popcornarts</text><text x="0" y="300" fill="#000000" font-size="5px" font-weight="bold" font-family="'Helvetica Neue', Helvetica, Arial-Unicode, Arial, Sans-serif">from the Noun Project</text></svg>